<svg fill="none" height="234" viewBox="0 0 260 234" width="260" xmlns="http://www.w3.org/2000/svg" xmlns:xlink="http://www.w3.org/1999/xlink"><mask id="a" fill="#000" height="46.9208" maskUnits="userSpaceOnUse" width="86.0011" x="31.318" y="57.2144"><path d="m31.318 57.2144h86.0011v46.9208h-86.0011z" fill="#fff"/><path d="m46.3836 68.6328-12.7647.2903 1.4245-7.5584 33.9632-.7723-1.4245 7.5583-12.1948.2773-6.1981 33.324-9.0036.204zm59.3764 5.2634c-.057-2.5073-.783-4.3723-2.179-5.5949-1.359-1.2614-3.122-1.8675-5.2872-1.8182-2.2794.0518-4.2618.629-5.9471 1.7316-1.6483 1.0638-3.0043 2.444-4.068 4.1406-1.0265 1.6577-1.7824 3.5184-2.2676 5.582-.4861 2.0255-.7071 4.0071-.6631 5.9446.032 1.4056.2332 2.7314.6036 3.9773.4084 1.245.9848 2.3532 1.729 3.3245.7814.9325 1.7485 1.6707 2.9011 2.2147 1.1907.543 2.6028.796 4.2364.7588 1.2157-.0276 2.3506-.2625 3.4048-.7046 1.0914-.4809 2.0471-1.0918 2.8661-1.8326.819-.7788 1.501-1.6685 2.049-2.6693.547-1.0007.904-2.035 1.07-3.1031l8.946-.2034c-.847 2.87-1.875 5.307-3.083 7.311-1.171 2.0031-2.521 3.6492-4.05 4.9383-1.492 1.2503-3.182 2.1625-5.069 2.7375-1.8487.613-3.8747.944-6.0781.994-5.7745.131-10.2734-1.306-13.4965-4.3114-3.1852-3.0063-4.8439-7.4158-4.9761-13.2283-.0751-3.3051.3665-6.451 1.3248-9.4375.9584-2.9866 2.3618-5.6222 4.2104-7.9068 1.8856-2.3235 4.181-4.1811 6.886-5.573 2.7431-1.3927 5.8242-2.1279 9.2433-2.2057 2.3552-.0536 4.5472.2197 6.5752.8197 2.028.6001 3.779 1.5295 5.252 2.7884 1.51 1.2199 2.686 2.7706 3.527 4.652.84 1.8434 1.269 4.0002 1.287 6.4704z" fill="#000"/></mask><mask id="b" fill="#000" height="50.011" maskUnits="userSpaceOnUse" width="90.0683" x="29.3178" y="55.1007"><path d="m29.3178 55.1007h90.0683v50.011h-90.0683z" fill="#fff"/><path d="m44.5106 67.2793-13.6605.3107 1.5245-8.0888 36.3466-.8265-1.5245 8.0887-13.0506.2968-6.633 35.6618-9.6355.219zm63.5434 5.6328c-.061-2.6833-.839-4.6791-2.333-5.9875-1.454-1.3499-3.34-1.9985-5.657-1.9458-2.4397.0554-4.5612.6731-6.3649 1.8531-1.7639 1.1384-3.215 2.6155-4.3534 4.4311-1.0986 1.7741-1.9075 3.7654-2.4268 5.9738-.5202 2.1677-.7567 4.2883-.7095 6.3617.0342 1.5043.2495 2.9231.6459 4.2565.4371 1.3324 1.0539 2.5183 1.8504 3.5578.8362.9979 1.8711 1.7879 3.1047 2.37 1.2742.5812 2.7854.8519 4.5336.8122 1.301-.0296 2.5156-.281 3.6438-.7541 1.1682-.5146 2.1902-1.1684 3.0672-1.9612.876-.8335 1.607-1.7857 2.193-2.8566.585-1.0709.967-2.1779 1.144-3.3209l9.575-.2177c-.906 3.0714-2.006 5.6794-3.3 7.824-1.253 2.1438-2.698 3.9054-4.334 5.2849-1.597 1.338-3.405 2.3146-5.425 2.9306-1.978.655-4.1462 1.009-6.5043 1.063-6.1797.14-10.9943-1.398-14.4436-4.6141-3.4087-3.2174-5.1838-7.9362-5.3253-14.1566-.0804-3.5371.3922-6.9037 1.4178-10.0999 1.0256-3.1961 2.5275-6.0167 4.5058-8.4616 2.018-2.4865 4.4744-4.4745 7.3693-5.9641 2.9355-1.4904 6.2328-2.2773 9.8919-2.3605 2.5204-.0573 4.8664.2351 7.0364.8773 2.171.6421 4.044 1.6368 5.621 2.984 1.616 1.3056 2.874 2.9651 3.774 4.9784.899 1.9728 1.358 4.2809 1.378 6.9245z" fill="#000"/></mask><circle cx="143" cy="117" fill="#ba3a33" r="116.5" stroke="#ba3a33"/><circle cx="73" cy="76" fill="#000" r="71.5" stroke="#000" stroke-width="3"/><path d="m46.3836 68.6328-12.7647.2903 1.4245-7.5584 33.9632-.7723-1.4245 7.5583-12.1948.2773-6.1981 33.324-9.0036.204zm59.3764 5.2634c-.057-2.5073-.783-4.3723-2.179-5.5949-1.359-1.2614-3.122-1.8675-5.2872-1.8182-2.2794.0518-4.2618.629-5.9471 1.7316-1.6483 1.0638-3.0043 2.444-4.068 4.1406-1.0265 1.6577-1.7824 3.5184-2.2676 5.582-.4861 2.0255-.7071 4.0071-.6631 5.9446.032 1.4056.2332 2.7314.6036 3.9773.4084 1.245.9848 2.3532 1.729 3.3245.7814.9325 1.7485 1.6707 2.9011 2.2147 1.1907.543 2.6028.796 4.2364.7588 1.2157-.0276 2.3506-.2625 3.4048-.7046 1.0914-.4809 2.0471-1.0918 2.8661-1.8326.819-.7788 1.501-1.6685 2.049-2.6693.547-1.0007.904-2.035 1.07-3.1031l8.946-.2034c-.847 2.87-1.875 5.307-3.083 7.311-1.171 2.0031-2.521 3.6492-4.05 4.9383-1.492 1.2503-3.182 2.1625-5.069 2.7375-1.8487.613-3.8747.944-6.0781.994-5.7745.131-10.2734-1.306-13.4965-4.3114-3.1852-3.0063-4.8439-7.4158-4.9761-13.2283-.0751-3.3051.3665-6.451 1.3248-9.4375.9584-2.9866 2.3618-5.6222 4.2104-7.9068 1.8856-2.3235 4.181-4.1811 6.886-5.573 2.7431-1.3927 5.8242-2.1279 9.2433-2.2057 2.3552-.0536 4.5472.2197 6.5752.8197 2.028.6001 3.779 1.5295 5.252 2.7884 1.51 1.2199 2.686 2.7706 3.527 4.652.84 1.8434 1.269 4.0002 1.287 6.4704z" fill="#f8f5e9"/><path d="m46.3836 68.6328.9831.1828.2252-1.2106-1.2311.028zm-12.7647.2903-.9827-.1853-.2286 1.2131 1.234-.0281zm1.4245-7.5584-.0227-.9997-.8099.0184-.1501.7961zm33.9632-.7723.9827.1852.2287-1.213-1.2341.028zm-1.4245 7.5583.0227.9998.81-.0185.15-.7961zm-12.1948.2773-.0228-.9997-.8119.0185-.1485.7984zm-6.1981 33.324.0228.999.8119-.018.1485-.799zm-9.0036.204-.9832-.183-.2251 1.211 1.231-.028zm6.1752-34.323-12.7647.2903.0455 1.9995 12.7647-.2903zm-11.7592 1.4753 1.4245-7.5584-1.9654-.3704-1.4245 7.5583zm.4645-6.7438 33.9633-.7724-.0455-1.9995-33.9632.7724zm32.9578-1.9573-1.4245 7.5583 1.9654.3704 1.4245-7.5583zm-.4645 6.7438-12.1949.2773.0455 1.9995 12.1948-.2773zm-13.1553 1.0942-6.198 33.3238 1.9663.365 6.198-33.3231zm-5.2376 32.5068-9.0037.205.0455 1.999 9.0037-.205zm-7.9978 1.387 6.198-33.3234-1.9663-.3657-6.198 33.3231zm64.5913-28.2428-.999.0228.022.9997 1-.0227zm-2.179-5.5949-.681.733.011.0098.011.0096zm-11.2343-.0866.5422.8402.0052-.0034zm-4.068 4.1406-.8472-.5312-.0029.0047zm-2.2676 5.582.9724.2333.001-.0044zm-.0595 9.9219-.9585.285.004.0134.0043.0133zm1.729 3.3245-.7937.6083.0133.0173.014.0167zm2.9011 2.2147-.4268.9044.0119.0054zm7.6412.0543.3868.9221.0083-.0034.0082-.0037zm2.8661-1.8327.671.7418.009-.0086.009-.0087zm2.049-2.6693-.877-.4799zm1.07-3.1031-.023-.9997-.837.019-.129.8274zm8.946-.2034.959.283.388-1.3139-1.369.0311zm-3.083 7.311-.857-.5166-.007.012zm-4.05 4.9383.642.7665.002-.0019zm-5.069 2.7375-.292-.9561-.011.0035-.012.0038zm-19.5746-3.3174-.6864.7273.0044.0041zm-3.6513-22.6658.9522.3055zm4.2104-7.9068-.7765-.6301-.0009.0011zm6.886-5.573-.4527-.8917-.0048.0025zm15.8185-1.386.284-.9589zm5.252 2.7884-.65.7602.011.0089.01.0087zm3.527 4.652-.913.4081.003.0066zm1.287 6.4704.023.9997.984-.0224-.007-.9847zm-7.947.1807c-.061-2.6849-.847-4.859-2.521-6.3245l-1.317 1.5047c1.118.9796 1.786 2.5355 1.839 4.8653zm-2.499-6.3051c-1.582-1.468-3.611-2.1392-5.9899-2.0851l.0455 1.9995c1.9524-.0444 3.4474.4967 4.5834 1.5515zm-5.9899-2.0851c-2.4408.0555-4.6104.6767-6.4719 1.8946l1.0949 1.6736c1.5092-.9873 3.3044-1.5205 5.4225-1.5687zm-6.4667 1.8912c-1.7739 1.1449-3.2331 2.6315-4.3729 4.4496l1.6945 1.0624c.9876-1.5752 2.2404-2.8489 3.7629-3.8316zm-4.3758 4.4543c-1.0883 1.7573-1.8832 3.72-2.391 5.8796l1.9469.4578c.4626-1.9675 1.1795-3.7262 2.1444-5.2844zm-2.3899 5.8751c-.5047 2.1032-.7366 4.1708-.6904 6.2007l1.9995-.0455c-.042-1.8451.1682-3.7405.6357-5.6885zm-.6904 6.2007c.0338 1.4873.2471 2.9018.6448 4.2396l1.917-.57c-.3431-1.1541-.5322-2.3911-.5623-3.7151zm.6531 4.2663c.441 1.3444 1.068 2.5543 1.8855 3.6211l1.5875-1.2165c-.6711-.8758-1.1968-1.8823-1.5726-3.028zm1.9128 3.6551c.8787 1.0487 1.9636 1.874 3.2408 2.4767l.8535-1.8087c-1.0282-.4852-1.8774-1.1363-2.5614-1.9525zm3.2526 2.4822c1.3577.6192 2.9262.8885 4.674.8488l-.0454-1.9995c-1.5194.0345-2.7751-.2021-3.7987-.669zm4.674.8488c1.3328-.0303 2.592-.2887 3.7689-.7822l-.7735-1.8443c-.9316.3906-1.9422.602-3.0408.627zm3.7854-.7893c1.1814-.5206 2.2288-1.1879 3.1338-2.0059l-1.342-1.4835c-.7336.6636-1.597 1.218-2.5983 1.6593zm3.1518-2.0232c.895-.8508 1.641-1.8233 2.237-2.9139l-1.754-.9598c-.499.9109-1.118 1.7179-1.861 2.4248zm2.237-2.9139c.6-1.0966.996-2.2409 1.181-3.4296l-1.977-.3067c-.147.9473-.464 1.8718-.958 2.7765zm.215-2.5832 8.947-.2035-.045-1.9995-8.947.2035zm7.965-1.4863c-.829 2.8097-1.826 5.1637-2.981 7.0776l1.713 1.033c1.263-2.0941 2.322-4.6141 3.186-7.5445zm-2.988 7.0895c-1.122 1.9201-2.401 3.4735-3.831 4.6784l1.289 1.5291c1.63-1.3734 3.05-3.1122 4.269-5.1983zm-3.828 4.6765c-1.388 1.1627-2.958 2.0113-4.719 2.5478l.583 1.9131c2.014-.614 3.824-1.5903 5.42-2.928zm-4.742 2.5551c-1.7424.5768-3.6687.8948-5.7859.9428l.0455 2c2.2898-.052 4.4154-.397 6.3694-1.044zm-5.7859.9428c-5.5975.127-9.8131-1.2653-12.7918-4.0427l-1.3639 1.4627c3.4677 3.234 8.2497 4.715 14.2012 4.58zm-12.7873-4.0386c-2.9335-2.7688-4.5345-6.8879-4.6627-12.5238l-1.9995.0455c.1362 5.989 1.8525 10.6888 5.2894 13.9327zm-4.6627-12.5238c-.0728-3.1999.3547-6.2344 1.2772-9.1093l-1.9043-.6111c-.9942 3.0982-1.4499 6.3555-1.3724 9.7659zm1.2772-9.1093c.9232-2.8768 2.2699-5.4011 4.0356-7.5833l-1.5548-1.258c-1.9314 2.387-3.3916 5.134-4.3851 8.2302zm4.0346-7.5821c1.797-2.2142 3.9831-3.9844 6.5672-5.314l-.9151-1.7784c-2.826 1.4541-5.2306 3.3993-7.205 5.8321zm6.5624-5.3115c2.5953-1.3178 5.5268-2.0229 8.8132-2.0977l-.0454-1.9994c-3.5519.0807-6.7825.846-9.6733 2.3138zm8.8132-2.0977c2.2635-.0514 4.3505.2115 6.2685.7789l.568-1.9178c-2.138-.6326-4.435-.9162-6.8819-.8605zm6.2685.7789c1.906.564 3.529 1.4301 4.886 2.5897l1.3-1.5205c-1.59-1.358-3.468-2.3508-5.618-2.987zm4.907 2.6073c1.38 1.1148 2.462 2.5358 3.243 4.2823l1.825-.8162c-.901-2.0163-2.17-3.6967-3.811-5.0218zm3.246 4.2889c.77 1.6906 1.18 3.7033 1.197 6.063l2-.0147c-.019-2.5806-.468-4.8815-1.378-6.8777zm2.174 5.0559-8.946.2035.045 1.9995 8.947-.2035z" fill="#000" mask="url(#a)"/><circle cx="73" cy="76" fill="#000" r="71.5" stroke="#000" stroke-width="3"/><g fill="#f8f5e9"><path d="m44.5106 67.2793-13.6605.3107 1.5245-8.0888 36.3466-.8265-1.5245 8.0887-13.0506.2968-6.633 35.6618-9.6355.219zm63.5434 5.6328c-.061-2.6833-.839-4.6791-2.333-5.9875-1.454-1.3499-3.34-1.9985-5.657-1.9458-2.4397.0554-4.5612.6731-6.3649 1.8531-1.7639 1.1384-3.215 2.6155-4.3534 4.4311-1.0986 1.7741-1.9075 3.7654-2.4268 5.9738-.5202 2.1677-.7567 4.2883-.7095 6.3617.0342 1.5043.2495 2.9231.6459 4.2565.4371 1.3324 1.0539 2.5183 1.8504 3.5578.8362.9979 1.8711 1.7879 3.1047 2.37 1.2742.5812 2.7854.8519 4.5336.8122 1.301-.0296 2.5156-.281 3.6438-.7541 1.1682-.5146 2.1902-1.1684 3.0672-1.9612.876-.8335 1.607-1.7857 2.193-2.8566.585-1.0709.967-2.1779 1.144-3.3209l9.575-.2177c-.906 3.0714-2.006 5.6794-3.3 7.824-1.253 2.1438-2.698 3.9054-4.334 5.2849-1.597 1.338-3.405 2.3146-5.425 2.9306-1.978.655-4.1462 1.009-6.5043 1.063-6.1797.14-10.9943-1.398-14.4436-4.6141-3.4087-3.2174-5.1838-7.9362-5.3253-14.1566-.0804-3.5371.3922-6.9037 1.4178-10.0999 1.0256-3.1961 2.5275-6.0167 4.5058-8.4616 2.018-2.4865 4.4744-4.4745 7.3693-5.9641 2.9355-1.4904 6.2328-2.2773 9.8919-2.3605 2.5204-.0573 4.8664.2351 7.0364.8773 2.171.6421 4.044 1.6368 5.621 2.984 1.616 1.3056 2.874 2.9651 3.774 4.9784.899 1.9728 1.358 4.2809 1.378 6.9245z"/><path d="m44.5106 67.2793.9831.1829.2252-1.2106-1.2311.028zm-13.6605.3107-.9827-.1852-.2286 1.213 1.234-.0281zm1.5245-8.0888-.0227-.9997-.81.0184-.15.7961zm36.3466-.8265.9827.1852.2286-1.213-1.234.028zm-1.5245 8.0887.0227.9998.81-.0184.15-.7962zm-13.0506.2968-.0228-.9997-.8119.0184-.1485.7984zm-6.633 35.6618.0228 1 .8119-.018.1485-.799zm-9.6355.219-.9831-.183-.2252 1.211 1.231-.028zm6.6102-36.6614-13.6604.3106.0454 1.9995 13.6605-.3106zm-12.655 1.4956 1.5245-8.0888-1.9654-.3704-1.5245 8.0888zm.5645-7.2742 36.3466-.8266-.0454-1.9995-36.3466.8266zm35.3412-2.0115-1.5245 8.0887 1.9654.3704 1.5245-8.0887zm-.5645 7.2742-13.0507.2968.0455 1.9994 13.0506-.2967zm-14.0111 1.1136-6.6329 35.6617 1.9663.366 6.6329-35.6619zm-5.6725 34.8447-9.6355.22.0454 1.999 9.6356-.219zm-8.6296 1.402 6.6329-35.6618-1.9663-.3657-6.6329 35.6615zm69.1932-30.2119-1 .0228.023.9997 1-.0227zm-2.333-5.9875-.68.733.011.0098.011.0096zm-12.0219-.0927.5423.8403.0052-.0034zm-4.3534 4.4311-.8472-.5312-.0029.0048zm-2.4268 5.9738.9724.2333.0011-.0044zm-.0636 10.6182-.9585.2849.004.0134.0043.0133zm1.8504 3.5578-.7938.6082.0133.0174.014.0167zm3.1047 2.37-.4268.9045.0118.0054zm8.1774.0581.3872.9222.008-.0034.008-.0037zm3.0672-1.9612.671.7418.009-.0086.009-.0087zm2.193-2.8566-.878-.4799zm1.144-3.3209-.022-.9997-.837.019-.129.8274zm9.575-.2177.959.283.388-1.3139-1.37.0312zm-3.3 7.824-.856-.5165-.007.0119zm-4.334 5.2849.642.7665.003-.0019zm-5.425 2.9306-.291-.957-.012.003-.011.004zm-20.9479-3.5511-.6864.7272.0044.0041zm-3.9075-24.2565.9522.3056zm4.5058-8.4616-.7765-.6302-.0009.0012zm7.3693-5.9641-.4527-.8916-.0048.0024zm16.9283-1.4832.284-.9589zm5.621 2.984-.65.7602.01.009.011.0086zm3.774 4.9784-.913.4082.003.0066zm1.378 6.9245.022.9998.985-.0224-.007-.9847zm-8.575.195c-.065-2.8609-.902-5.1658-2.674-6.7171l-1.317 1.5047c1.216 1.0654 1.934 2.7521 1.991 5.2579zm-2.652-6.6977c-1.677-1.5566-3.831-2.2702-6.361-2.2127l.045 1.9995c2.105-.0479 3.723.5357 4.955 1.6791zm-6.361-2.2127c-2.6009.0592-4.9095.7209-6.8893 2.0161l1.0949 1.6737c1.6275-1.0648 3.5618-1.6385 5.8394-1.6903zm-6.8841 2.0127c-1.8896 1.2195-3.4439 2.803-4.6584 4.7402l1.6945 1.0623c1.0622-1.6942 2.4102-3.0648 4.0484-4.1221zm-4.6613 4.7449c-1.1603 1.8736-2.0083 3.9668-2.5501 6.2713l1.9469.4578c.4967-2.1124 1.2666-4.0016 2.3035-5.6762zm-2.5491 6.2668c-.5388 2.2453-.7861 4.452-.7369 6.6179l1.9995-.0455c-.045-1.9811.1807-4.0156.6822-6.1057zm-.7369 6.6179c.0361 1.5859.2635 3.0935.6872 4.5186l1.917-.5699c-.3691-1.2415-.5723-2.5716-.6047-3.9942zm.6955 4.5453c.4697 1.4318 1.1371 2.7195 2.0068 3.8544l1.5875-1.2164c-.7233-.944-1.2894-2.0283-1.6939-3.2613zm2.0341 3.8885c.9336 1.1141 2.0864 1.9912 3.4444 2.6321l.8535-1.8087c-1.1091-.5234-2.0261-1.2263-2.765-2.108zm3.4562 2.6376c1.4412.6573 3.1089.9444 4.9713.902l-.0454-1.9995c-1.634.0372-2.9888-.2172-4.096-.7222zm4.9713.902c1.4181-.0322 2.757-.307 4.0083-.8316l-.7739-1.8444c-1.0056.4217-2.0959.6496-3.2798.6765zm4.0243-.8387c1.258-.5543 2.372-1.2645 3.335-2.1345l-1.342-1.4836c-.791.7157-1.722 1.3129-2.7995 1.788zm3.353-2.1518c.952-.9055 1.746-1.9404 2.381-3.1012l-1.755-.9598c-.536.9811-1.204 1.8506-2.004 2.612zm2.381-3.1012c.638-1.1668 1.059-2.3838 1.256-3.6474l-1.977-.3067c-.158 1.0223-.5 2.0193-1.034 2.9943zm.29-2.801 9.575-.2178-.046-1.9994-9.574.2177zm8.593-1.5005c-.889 3.011-1.958 5.536-3.197 7.5906l1.712 1.0329c1.348-2.2347 2.479-4.9257 3.403-8.0575zm-3.204 7.6024c-1.205 2.0607-2.579 3.7297-4.116 5.025l1.29 1.5291c1.736-1.4638 3.251-3.3181 4.552-5.5449zm-4.113 5.0231c-1.493 1.2505-3.181 2.1631-5.074 2.74l.583 1.913c2.146-.654 4.074-1.695 5.775-3.1201zm-5.097 2.747c-1.873.62-3.9413.961-6.213 1.013l.0454 1.999c2.4444-.055 4.7126-.423 6.7966-1.113zm-6.213 1.013c-6.0028.136-10.5342-1.357-13.739-4.3455l-1.3639 1.4627c3.6939 3.4448 8.7916 5.0268 15.1483 4.8818zm-13.7345-4.3414c-3.157-2.9797-4.8745-7.4082-5.0119-13.4521l-1.9995.0455c.1455 6.3969 1.9781 11.4061 5.6386 14.8611zm-5.0119-13.4521c-.0781-3.4318.3804-6.687 1.3702-9.7715l-1.9044-.6111c-1.0614 3.3078-1.5481 6.7858-1.4653 10.4281zm1.3702-9.7715c.9904-3.0865 2.4356-5.7957 4.331-8.1382l-1.5548-1.258c-2.0611 2.5473-3.6198 5.4792-4.6806 8.7851zm4.3301-8.137c1.9292-2.3772 4.2764-4.2778 7.0503-5.7051l-.915-1.7784c-3.0159 1.5518-5.5816 3.6273-7.6883 6.2231zm7.0455-5.7026c2.7879-1.4155 5.9356-2.1722 9.4619-2.2524l-.0454-1.9995c-3.7918.0862-7.2387.9031-10.3219 2.4686zm9.4619-2.2524c2.4287-.0553 4.6697.2268 6.7307.8364l.567-1.9178c-2.28-.6747-4.73-.9775-7.3431-.9181zm6.7307.8364c2.048.606 3.794 1.5374 5.254 2.7853l1.299-1.5204c-1.692-1.4465-3.693-2.5045-5.986-3.1827zm5.275 2.8029c1.486 1.2005 2.65 2.7302 3.49 4.6087l1.826-.8161c-.961-2.1483-2.313-3.9375-4.059-5.3483zm3.493 4.6154c.829 1.8199 1.269 3.9839 1.288 6.5171l2-.0147c-.021-2.7541-.5-5.2063-1.468-7.3319zm2.265 5.51-9.575.2177.046 1.9995 9.574-.2177z" mask="url(#b)"/></g></svg>