<svg width="260" height="234" viewBox="0 0 260 234" fill="none" xmlns="http://www.w3.org/2000/svg">
<circle cx="143" cy="117" r="116.5" fill="#BA3A33" stroke="#BA3A33"/>
<circle cx="73" cy="76" r="71.5" fill="black" stroke="black" stroke-width="3"/>
<mask id="path-3-outside-1_2_11" maskUnits="userSpaceOnUse" x="31.318" y="57.2144" width="86.0011" height="46.9208" fill="black">
<rect fill="white" x="31.318" y="57.2144" width="86.0011" height="46.9208"/>
<path d="M46.3836 68.6328L33.6189 68.9231L35.0434 61.3647L69.0066 60.5924L67.5821 68.1507L55.3873 68.428L49.1892 101.752L40.1856 101.956L46.3836 68.6328ZM105.76 73.8962C105.703 71.3889 104.977 69.5239 103.581 68.3013C102.222 67.0399 100.459 66.4338 98.2938 66.4831C96.0144 66.5349 94.032 67.1121 92.3467 68.2147C90.6984 69.2785 89.3424 70.6587 88.2787 72.3553C87.2522 74.013 86.4963 75.8737 86.0111 77.9373C85.525 79.9628 85.304 81.9444 85.348 83.8819C85.38 85.2875 85.5812 86.6133 85.9516 87.8592C86.36 89.1042 86.9364 90.2124 87.6806 91.1837C88.462 92.1162 89.4291 92.8544 90.5817 93.3984C91.7724 93.9414 93.1845 94.1944 94.8181 94.1572C96.0338 94.1296 97.1687 93.8947 98.2229 93.4526C99.3143 92.9717 100.27 92.3608 101.089 91.62C101.908 90.8412 102.59 89.9515 103.138 88.9507C103.685 87.95 104.042 86.9157 104.208 85.8476L113.154 85.6442C112.307 88.5142 111.279 90.9512 110.071 92.9552C108.9 94.9583 107.55 96.6044 106.021 97.8935C104.529 99.1438 102.839 100.056 100.952 100.631C99.1033 101.244 97.0773 101.575 94.8739 101.625C89.0994 101.756 84.6005 100.319 81.3774 97.3136C78.1922 94.3073 76.5335 89.8978 76.4013 84.0853C76.3262 80.7802 76.7678 77.6343 77.7261 74.6478C78.6845 71.6612 80.0879 69.0256 81.9365 66.741C83.8221 64.4175 86.1175 62.5599 88.8225 61.168C91.5656 59.7753 94.6467 59.0401 98.0658 58.9623C100.421 58.9087 102.613 59.182 104.641 59.782C106.669 60.3821 108.42 61.3115 109.893 62.5704C111.403 63.7903 112.579 65.341 113.42 67.2224C114.26 69.0658 114.689 71.2226 114.707 73.6928L105.76 73.8962Z"/>
</mask>
<path d="M46.3836 68.6328L33.6189 68.9231L35.0434 61.3647L69.0066 60.5924L67.5821 68.1507L55.3873 68.428L49.1892 101.752L40.1856 101.956L46.3836 68.6328ZM105.76 73.8962C105.703 71.3889 104.977 69.5239 103.581 68.3013C102.222 67.0399 100.459 66.4338 98.2938 66.4831C96.0144 66.5349 94.032 67.1121 92.3467 68.2147C90.6984 69.2785 89.3424 70.6587 88.2787 72.3553C87.2522 74.013 86.4963 75.8737 86.0111 77.9373C85.525 79.9628 85.304 81.9444 85.348 83.8819C85.38 85.2875 85.5812 86.6133 85.9516 87.8592C86.36 89.1042 86.9364 90.2124 87.6806 91.1837C88.462 92.1162 89.4291 92.8544 90.5817 93.3984C91.7724 93.9414 93.1845 94.1944 94.8181 94.1572C96.0338 94.1296 97.1687 93.8947 98.2229 93.4526C99.3143 92.9717 100.27 92.3608 101.089 91.62C101.908 90.8412 102.59 89.9515 103.138 88.9507C103.685 87.95 104.042 86.9157 104.208 85.8476L113.154 85.6442C112.307 88.5142 111.279 90.9512 110.071 92.9552C108.9 94.9583 107.55 96.6044 106.021 97.8935C104.529 99.1438 102.839 100.056 100.952 100.631C99.1033 101.244 97.0773 101.575 94.8739 101.625C89.0994 101.756 84.6005 100.319 81.3774 97.3136C78.1922 94.3073 76.5335 89.8978 76.4013 84.0853C76.3262 80.7802 76.7678 77.6343 77.7261 74.6478C78.6845 71.6612 80.0879 69.0256 81.9365 66.741C83.8221 64.4175 86.1175 62.5599 88.8225 61.168C91.5656 59.7753 94.6467 59.0401 98.0658 58.9623C100.421 58.9087 102.613 59.182 104.641 59.782C106.669 60.3821 108.42 61.3115 109.893 62.5704C111.403 63.7903 112.579 65.341 113.42 67.2224C114.26 69.0658 114.689 71.2226 114.707 73.6928L105.76 73.8962Z" fill="#F8F5E9"/>
<path d="M46.3836 68.6328L47.3667 68.8156L47.5919 67.605L46.3608 67.633L46.3836 68.6328ZM33.6189 68.9231L32.6362 68.7378L32.4076 69.9509L33.6416 69.9228L33.6189 68.9231ZM35.0434 61.3647L35.0207 60.365L34.2108 60.3834L34.0607 61.1795L35.0434 61.3647ZM69.0066 60.5924L69.9893 60.7776L70.218 59.5646L68.9839 59.5926L69.0066 60.5924ZM67.5821 68.1507L67.6048 69.1505L68.4148 69.132L68.5648 68.3359L67.5821 68.1507ZM55.3873 68.428L55.3645 67.4283L54.5526 67.4468L54.4041 68.2452L55.3873 68.428ZM49.1892 101.752L49.212 102.751L50.0239 102.733L50.1724 101.934L49.1892 101.752ZM40.1856 101.956L39.2024 101.773L38.9773 102.984L40.2083 102.956L40.1856 101.956ZM46.3608 67.633L33.5961 67.9233L33.6416 69.9228L46.4063 69.6325L46.3608 67.633ZM34.6016 69.1083L36.0261 61.5499L34.0607 61.1795L32.6362 68.7378L34.6016 69.1083ZM35.0661 62.3645L69.0294 61.5921L68.9839 59.5926L35.0207 60.365L35.0661 62.3645ZM68.0239 60.4072L66.5994 67.9655L68.5648 68.3359L69.9893 60.7776L68.0239 60.4072ZM67.5594 67.151L55.3645 67.4283L55.41 69.4278L67.6048 69.1505L67.5594 67.151ZM54.4041 68.2452L48.2061 101.569L50.1724 101.934L56.3704 68.6109L54.4041 68.2452ZM49.1665 100.752L40.1628 100.957L40.2083 102.956L49.212 102.751L49.1665 100.752ZM41.1687 102.139L47.3667 68.8156L45.4004 68.4499L39.2024 101.773L41.1687 102.139ZM105.76 73.8962L104.761 73.919L104.783 74.9187L105.783 74.896L105.76 73.8962ZM103.581 68.3013L102.9 69.0343L102.911 69.0441L102.922 69.0537L103.581 68.3013ZM92.3467 68.2147L92.8889 69.0549L92.8941 69.0515L92.3467 68.2147ZM88.2787 72.3553L87.4315 71.8241L87.4286 71.8288L88.2787 72.3553ZM86.0111 77.9373L86.9835 78.1706L86.9845 78.1662L86.0111 77.9373ZM85.9516 87.8592L84.9931 88.1442L84.9971 88.1576L85.0014 88.1709L85.9516 87.8592ZM87.6806 91.1837L86.8869 91.792L86.9002 91.8093L86.9142 91.826L87.6806 91.1837ZM90.5817 93.3984L90.1549 94.3028L90.1668 94.3082L90.5817 93.3984ZM98.2229 93.4527L98.6097 94.3748L98.618 94.3714L98.6262 94.3677L98.2229 93.4527ZM101.089 91.62L101.76 92.3618L101.769 92.3532L101.778 92.3445L101.089 91.62ZM103.138 88.9507L102.261 88.4708L102.261 88.4708L103.138 88.9507ZM104.208 85.8476L104.185 84.8479L103.348 84.8669L103.219 85.6943L104.208 85.8476ZM113.154 85.6442L114.113 85.9272L114.501 84.6133L113.132 84.6444L113.154 85.6442ZM110.071 92.9552L109.214 92.4386L109.207 92.4506L110.071 92.9552ZM106.021 97.8935L106.663 98.66L106.665 98.6581L106.021 97.8935ZM100.952 100.631L100.66 99.6749L100.649 99.6784L100.637 99.6822L100.952 100.631ZM81.3774 97.3136L80.691 98.0409L80.6954 98.045L81.3774 97.3136ZM77.7261 74.6478L78.6783 74.9533L77.7261 74.6478ZM81.9365 66.741L81.16 66.1109L81.1591 66.112L81.9365 66.741ZM88.8225 61.168L88.3698 60.2763L88.365 60.2788L88.8225 61.168ZM104.641 59.782L104.925 58.8231L104.641 59.782ZM109.893 62.5704L109.243 63.3306L109.254 63.3395L109.264 63.3482L109.893 62.5704ZM113.42 67.2224L112.507 67.6305L112.51 67.6371L113.42 67.2224ZM114.707 73.6928L114.73 74.6925L115.714 74.6701L115.707 73.6854L114.707 73.6928ZM106.76 73.8735C106.699 71.1886 105.913 69.0145 104.239 67.549L102.922 69.0537C104.04 70.0333 104.708 71.5892 104.761 73.919L106.76 73.8735ZM104.261 67.5684C102.679 66.1004 100.65 65.4292 98.2711 65.4833L98.3166 67.4828C100.269 67.4384 101.764 67.9795 102.9 69.0343L104.261 67.5684ZM98.2711 65.4833C95.8303 65.5388 93.6607 66.16 91.7992 67.3779L92.8941 69.0515C94.4033 68.0642 96.1985 67.531 98.3166 67.4828L98.2711 65.4833ZM91.8044 67.3745C90.0305 68.5194 88.5713 70.006 87.4315 71.8241L89.126 72.8865C90.1136 71.3113 91.3664 70.0376 92.8889 69.0549L91.8044 67.3745ZM87.4286 71.8288C86.3403 73.5861 85.5454 75.5488 85.0376 77.7084L86.9845 78.1662C87.4471 76.1987 88.164 74.44 89.1289 72.8818L87.4286 71.8288ZM85.0387 77.7039C84.534 79.8071 84.3021 81.8747 84.3483 83.9046L86.3478 83.8591C86.3058 82.014 86.516 80.1186 86.9835 78.1706L85.0387 77.7039ZM84.3483 83.9046C84.3821 85.3919 84.5954 86.8064 84.9931 88.1442L86.9101 87.5742C86.567 86.4201 86.3779 85.1831 86.3478 83.8591L84.3483 83.9046ZM85.0014 88.1709C85.4424 89.5153 86.0694 90.7252 86.8869 91.792L88.4744 90.5755C87.8033 89.6997 87.2776 88.6932 86.9018 87.5475L85.0014 88.1709ZM86.9142 91.826C87.7929 92.8747 88.8778 93.7 90.155 94.3027L91.0085 92.494C89.9803 92.0088 89.1311 91.3577 88.4471 90.5415L86.9142 91.826ZM90.1668 94.3082C91.5245 94.9274 93.093 95.1967 94.8408 95.157L94.7954 93.1575C93.276 93.192 92.0203 92.9554 90.9967 92.4885L90.1668 94.3082ZM94.8408 95.157C96.1736 95.1267 97.4328 94.8683 98.6097 94.3748L97.8362 92.5305C96.9046 92.9211 95.894 93.1325 94.7954 93.1575L94.8408 95.157ZM98.6262 94.3677C99.8076 93.8471 100.855 93.1798 101.76 92.3618L100.418 90.8783C99.6844 91.5419 98.821 92.0963 97.8197 92.5376L98.6262 94.3677ZM101.778 92.3445C102.673 91.4937 103.419 90.5212 104.015 89.4306L102.261 88.4708C101.762 89.3817 101.143 90.1887 100.4 90.8956L101.778 92.3445ZM104.015 89.4306C104.615 88.334 105.011 87.1897 105.196 86.001L103.219 85.6943C103.072 86.6416 102.755 87.5661 102.261 88.4708L104.015 89.4306ZM104.23 86.8474L113.177 86.6439L113.132 84.6444L104.185 84.8479L104.23 86.8474ZM112.195 85.3611C111.366 88.1708 110.369 90.5248 109.214 92.4387L110.927 93.4717C112.19 91.3776 113.249 88.8576 114.113 85.9272L112.195 85.3611ZM109.207 92.4506C108.085 94.3707 106.806 95.9241 105.376 97.129L106.665 98.6581C108.295 97.2847 109.715 95.5459 110.934 93.4598L109.207 92.4506ZM105.379 97.1271C103.991 98.2898 102.421 99.1384 100.66 99.6749L101.243 101.588C103.257 100.974 105.067 99.9977 106.663 98.66L105.379 97.1271ZM100.637 99.6822C98.8946 100.259 96.9683 100.577 94.8511 100.625L94.8966 102.625C97.1864 102.573 99.312 102.228 101.266 101.581L100.637 99.6822ZM94.8511 100.625C89.2536 100.752 85.038 99.3597 82.0593 96.5823L80.6954 98.045C84.1631 101.279 88.9451 102.76 94.8966 102.625L94.8511 100.625ZM82.0638 96.5864C79.1303 93.8176 77.5293 89.6985 77.4011 84.0626L75.4016 84.1081C75.5378 90.0971 77.2541 94.7969 80.691 98.0408L82.0638 96.5864ZM77.4011 84.0626C77.3283 80.8627 77.7558 77.8282 78.6783 74.9533L76.774 74.3422C75.7798 77.4404 75.3241 80.6977 75.4016 84.1081L77.4011 84.0626ZM78.6783 74.9533C79.6015 72.0765 80.9482 69.5522 82.7139 67.37L81.1591 66.112C79.2277 68.499 77.7675 71.246 76.774 74.3422L78.6783 74.9533ZM82.7129 67.3712C84.5099 65.157 86.696 63.3868 89.2801 62.0572L88.365 60.2788C85.539 61.7329 83.1344 63.6781 81.16 66.1109L82.7129 67.3712ZM89.2753 62.0597C91.8706 60.7419 94.8021 60.0368 98.0885 59.962L98.0431 57.9626C94.4912 58.0433 91.2606 58.8086 88.3698 60.2764L89.2753 62.0597ZM98.0885 59.962C100.352 59.9106 102.439 60.1735 104.357 60.7409L104.925 58.8231C102.787 58.1905 100.49 57.9069 98.0431 57.9626L98.0885 59.962ZM104.357 60.7409C106.263 61.3049 107.886 62.171 109.243 63.3306L110.543 61.8101C108.953 60.4521 107.075 59.4593 104.925 58.8231L104.357 60.7409ZM109.264 63.3482C110.644 64.463 111.726 65.884 112.507 67.6305L114.332 66.8143C113.431 64.798 112.162 63.1176 110.521 61.7925L109.264 63.3482ZM112.51 67.6371C113.28 69.3277 113.69 71.3404 113.707 73.7001L115.707 73.6854C115.688 71.1048 115.239 68.8039 114.329 66.8077L112.51 67.6371ZM114.684 72.693L105.738 72.8965L105.783 74.896L114.73 74.6925L114.684 72.693Z" fill="black" mask="url(#path-3-outside-1_2_11)"/>
<circle cx="73" cy="76" r="71.5" fill="black" stroke="black" stroke-width="3"/>
<mask id="path-6-outside-2_2_11" maskUnits="userSpaceOnUse" x="29.3178" y="55.1007" width="90.0683" height="50.011" fill="black">
<rect fill="white" x="29.3178" y="55.1007" width="90.0683" height="50.011"/>
<path d="M44.5106 67.2793L30.8501 67.59L32.3746 59.5012L68.7212 58.6747L67.1967 66.7634L54.1461 67.0602L47.5131 102.722L37.8776 102.941L44.5106 67.2793ZM108.054 72.9121C107.993 70.2288 107.215 68.233 105.721 66.9246C104.267 65.5747 102.381 64.9261 100.064 64.9788C97.6243 65.0342 95.5028 65.6519 93.6991 66.8319C91.9352 67.9703 90.4841 69.4474 89.3457 71.263C88.2471 73.0371 87.4382 75.0284 86.9189 77.2368C86.3987 79.4045 86.1622 81.5251 86.2094 83.5985C86.2436 85.1028 86.4589 86.5216 86.8553 87.855C87.2924 89.1874 87.9092 90.3733 88.7057 91.4128C89.5419 92.4107 90.5768 93.2007 91.8104 93.7828C93.0846 94.364 94.5958 94.6347 96.344 94.595C97.645 94.5654 98.8596 94.314 99.9878 93.8409C101.156 93.3263 102.178 92.6725 103.055 91.8797C103.931 91.0462 104.662 90.094 105.248 89.0231C105.833 87.9522 106.215 86.8452 106.392 85.7022L115.967 85.4845C115.061 88.5559 113.961 91.1639 112.667 93.3085C111.414 95.4523 109.969 97.2139 108.333 98.5934C106.736 99.9314 104.928 100.908 102.908 101.524C100.93 102.179 98.7618 102.533 96.4037 102.587C90.224 102.727 85.4094 101.189 81.9601 97.9729C78.5514 94.7555 76.7763 90.0367 76.6348 83.8163C76.5544 80.2792 77.027 76.9126 78.0526 73.7164C79.0782 70.5203 80.5801 67.6997 82.5584 65.2548C84.5764 62.7683 87.0328 60.7803 89.9277 59.2907C92.8632 57.8003 96.1605 57.0134 99.8196 56.9302C102.34 56.8729 104.686 57.1653 106.856 57.8075C109.027 58.4496 110.9 59.4443 112.477 60.7915C114.093 62.0971 115.351 63.7566 116.251 65.7699C117.15 67.7427 117.609 70.0508 117.629 72.6944L108.054 72.9121Z"/>
</mask>
<path d="M44.5106 67.2793L30.8501 67.59L32.3746 59.5012L68.7212 58.6747L67.1967 66.7634L54.1461 67.0602L47.5131 102.722L37.8776 102.941L44.5106 67.2793ZM108.054 72.9121C107.993 70.2288 107.215 68.233 105.721 66.9246C104.267 65.5747 102.381 64.9261 100.064 64.9788C97.6243 65.0342 95.5028 65.6519 93.6991 66.8319C91.9352 67.9703 90.4841 69.4474 89.3457 71.263C88.2471 73.0371 87.4382 75.0284 86.9189 77.2368C86.3987 79.4045 86.1622 81.5251 86.2094 83.5985C86.2436 85.1028 86.4589 86.5216 86.8553 87.855C87.2924 89.1874 87.9092 90.3733 88.7057 91.4128C89.5419 92.4107 90.5768 93.2007 91.8104 93.7828C93.0846 94.364 94.5958 94.6347 96.344 94.595C97.645 94.5654 98.8596 94.314 99.9878 93.8409C101.156 93.3263 102.178 92.6725 103.055 91.8797C103.931 91.0462 104.662 90.094 105.248 89.0231C105.833 87.9522 106.215 86.8452 106.392 85.7022L115.967 85.4845C115.061 88.5559 113.961 91.1639 112.667 93.3085C111.414 95.4523 109.969 97.2139 108.333 98.5934C106.736 99.9314 104.928 100.908 102.908 101.524C100.93 102.179 98.7618 102.533 96.4037 102.587C90.224 102.727 85.4094 101.189 81.9601 97.9729C78.5514 94.7555 76.7763 90.0367 76.6348 83.8163C76.5544 80.2792 77.027 76.9126 78.0526 73.7164C79.0782 70.5203 80.5801 67.6997 82.5584 65.2548C84.5764 62.7683 87.0328 60.7803 89.9277 59.2907C92.8632 57.8003 96.1605 57.0134 99.8196 56.9302C102.34 56.8729 104.686 57.1653 106.856 57.8075C109.027 58.4496 110.9 59.4443 112.477 60.7915C114.093 62.0971 115.351 63.7566 116.251 65.7699C117.15 67.7427 117.609 70.0508 117.629 72.6944L108.054 72.9121Z" fill="#F8F5E9"/>
<path d="M44.5106 67.2793L45.4937 67.4622L45.7189 66.2516L44.4878 66.2796L44.5106 67.2793ZM30.8501 67.59L29.8674 67.4048L29.6388 68.6178L30.8728 68.5897L30.8501 67.59ZM32.3746 59.5012L32.3519 58.5015L31.5419 58.5199L31.3919 59.316L32.3746 59.5012ZM68.7212 58.6747L69.7039 58.8599L69.9325 57.6469L68.6985 57.6749L68.7212 58.6747ZM67.1967 66.7634L67.2194 67.7632L68.0294 67.7448L68.1794 66.9486L67.1967 66.7634ZM54.1461 67.0602L54.1233 66.0605L53.3114 66.0789L53.1629 66.8773L54.1461 67.0602ZM47.5131 102.722L47.5359 103.722L48.3478 103.704L48.4963 102.905L47.5131 102.722ZM37.8776 102.941L36.8945 102.758L36.6693 103.969L37.9003 103.941L37.8776 102.941ZM44.4878 66.2796L30.8274 66.5902L30.8728 68.5897L44.5333 68.2791L44.4878 66.2796ZM31.8328 67.7752L33.3573 59.6864L31.3919 59.316L29.8674 67.4048L31.8328 67.7752ZM32.3973 60.501L68.7439 59.6744L68.6985 57.6749L32.3519 58.5015L32.3973 60.501ZM67.7385 58.4895L66.214 66.5782L68.1794 66.9486L69.7039 58.8599L67.7385 58.4895ZM67.174 65.7637L54.1233 66.0605L54.1688 68.0599L67.2194 67.7632L67.174 65.7637ZM53.1629 66.8773L46.53 102.539L48.4963 102.905L55.1292 67.2431L53.1629 66.8773ZM47.4904 101.722L37.8549 101.942L37.9003 103.941L47.5359 103.722L47.4904 101.722ZM38.8608 103.124L45.4937 67.4622L43.5274 67.0965L36.8945 102.758L38.8608 103.124ZM108.054 72.9121L107.054 72.9349L107.077 73.9346L108.077 73.9119L108.054 72.9121ZM105.721 66.9246L105.041 67.6576L105.052 67.6674L105.063 67.677L105.721 66.9246ZM93.6991 66.8319L94.2414 67.6722L94.2466 67.6688L93.6991 66.8319ZM89.3457 71.263L88.4985 70.7318L88.4956 70.7366L89.3457 71.263ZM86.9189 77.2368L87.8913 77.4701L87.8924 77.4657L86.9189 77.2368ZM86.8553 87.855L85.8968 88.1399L85.9008 88.1533L85.9051 88.1666L86.8553 87.855ZM88.7057 91.4128L87.9119 92.021L87.9252 92.0384L87.9392 92.0551L88.7057 91.4128ZM91.8104 93.7828L91.3836 94.6873L91.3954 94.6927L91.8104 93.7828ZM99.9878 93.8409L100.375 94.7631L100.383 94.7597L100.391 94.756L99.9878 93.8409ZM103.055 91.8797L103.726 92.6215L103.735 92.6129L103.744 92.6042L103.055 91.8797ZM105.248 89.0231L104.37 88.5432L104.37 88.5432L105.248 89.0231ZM106.392 85.7022L106.37 84.7025L105.533 84.7215L105.404 85.5489L106.392 85.7022ZM115.967 85.4845L116.926 85.7675L117.314 84.4536L115.944 84.4848L115.967 85.4845ZM112.667 93.3085L111.811 92.792L111.804 92.8039L112.667 93.3085ZM108.333 98.5934L108.975 99.3599L108.978 99.358L108.333 98.5934ZM102.908 101.524L102.617 100.567L102.605 100.57L102.594 100.574L102.908 101.524ZM81.9601 97.9729L81.2737 98.7001L81.2781 98.7042L81.9601 97.9729ZM78.0526 73.7164L79.0048 74.022L78.0526 73.7164ZM82.5584 65.2548L81.7819 64.6246L81.781 64.6258L82.5584 65.2548ZM89.9277 59.2907L89.475 58.3991L89.4702 58.4015L89.9277 59.2907ZM106.856 57.8075L107.14 56.8486L106.856 57.8075ZM112.477 60.7915L111.827 61.5517L111.837 61.5607L111.848 61.5693L112.477 60.7915ZM116.251 65.7699L115.338 66.1781L115.341 66.1847L116.251 65.7699ZM117.629 72.6944L117.651 73.6942L118.636 73.6718L118.629 72.6871L117.629 72.6944ZM109.054 72.8894C108.989 70.0285 108.152 67.7236 106.38 66.1723L105.063 67.677C106.279 68.7424 106.997 70.4291 107.054 72.9349L109.054 72.8894ZM106.402 66.1917C104.725 64.6351 102.571 63.9215 100.041 63.979L100.086 65.9785C102.191 65.9306 103.809 66.5142 105.041 67.6576L106.402 66.1917ZM100.041 63.979C97.4401 64.0382 95.1315 64.6999 93.1517 65.9951L94.2466 67.6688C95.8741 66.604 97.8084 66.0303 100.086 65.9785L100.041 63.979ZM93.1569 65.9917C91.2673 67.2112 89.713 68.7947 88.4985 70.7319L90.193 71.7942C91.2552 70.1 92.6032 68.7294 94.2414 67.6721L93.1569 65.9917ZM88.4956 70.7366C87.3353 72.6102 86.4873 74.7034 85.9455 77.0079L87.8924 77.4657C88.3891 75.3533 89.159 73.4641 90.1959 71.7895L88.4956 70.7366ZM85.9465 77.0034C85.4077 79.2487 85.1604 81.4554 85.2096 83.6213L87.2091 83.5758C87.1641 81.5947 87.3898 79.5602 87.8913 77.4701L85.9465 77.0034ZM85.2096 83.6213C85.2457 85.2072 85.4731 86.7148 85.8968 88.1399L87.8138 87.57C87.4447 86.3285 87.2415 84.9984 87.2091 83.5758L85.2096 83.6213ZM85.9051 88.1666C86.3748 89.5984 87.0422 90.8861 87.9119 92.021L89.4994 90.8046C88.7761 89.8606 88.21 88.7763 87.8055 87.5433L85.9051 88.1666ZM87.9392 92.0551C88.8728 93.1692 90.0256 94.0463 91.3836 94.6872L92.2371 92.8785C91.128 92.3551 90.211 91.6522 89.4721 90.7705L87.9392 92.0551ZM91.3954 94.6927C92.8366 95.35 94.5043 95.6371 96.3667 95.5947L96.3213 93.5952C94.6873 93.6324 93.3325 93.378 92.2253 92.873L91.3954 94.6927ZM96.3667 95.5947C97.7848 95.5625 99.1237 95.2877 100.375 94.7631L99.6011 92.9187C98.5955 93.3404 97.5052 93.5683 96.3213 93.5952L96.3667 95.5947ZM100.391 94.756C101.649 94.2017 102.763 93.4915 103.726 92.6215L102.384 91.1379C101.593 91.8536 100.662 92.4508 99.5845 92.9259L100.391 94.756ZM103.744 92.6042C104.696 91.6987 105.49 90.6638 106.125 89.503L104.37 88.5432C103.834 89.5243 103.166 90.3938 102.366 91.1552L103.744 92.6042ZM106.125 89.503C106.763 88.3362 107.184 87.1192 107.381 85.8556L105.404 85.5489C105.246 86.5712 104.904 87.5682 104.37 88.5432L106.125 89.503ZM106.415 86.702L115.99 86.4842L115.944 84.4848L106.37 84.7025L106.415 86.702ZM115.008 85.2015C114.119 88.2125 113.05 90.7375 111.811 92.7921L113.523 93.825C114.871 91.5903 116.002 88.8993 116.926 85.7675L115.008 85.2015ZM111.804 92.8039C110.599 94.8646 109.225 96.5336 107.688 97.8289L108.978 99.358C110.714 97.8942 112.229 96.0399 113.53 93.8131L111.804 92.8039ZM107.691 97.827C106.198 99.0775 104.51 99.9901 102.617 100.567L103.2 102.48C105.346 101.826 107.274 100.785 108.975 99.3599L107.691 97.827ZM102.594 100.574C100.721 101.194 98.6527 101.535 96.381 101.587L96.4264 103.586C98.8708 103.531 101.139 103.163 103.223 102.473L102.594 100.574ZM96.381 101.587C90.3782 101.723 85.8468 100.23 82.642 97.2415L81.2781 98.7042C84.972 102.149 90.0697 103.731 96.4264 103.586L96.381 101.587ZM82.6465 97.2456C79.4895 94.2659 77.772 89.8374 77.6346 83.7935L75.6351 83.839C75.7806 90.2359 77.6132 95.2451 81.2737 98.7001L82.6465 97.2456ZM77.6346 83.7935C77.5565 80.3617 78.015 77.1065 79.0048 74.022L77.1004 73.4109C76.039 76.7187 75.5523 80.1967 75.6351 83.839L77.6346 83.7935ZM79.0048 74.022C79.9952 70.9355 81.4404 68.2263 83.3358 65.8838L81.781 64.6258C79.7199 67.1731 78.1612 70.105 77.1004 73.4109L79.0048 74.022ZM83.3349 65.885C85.2641 63.5078 87.6113 61.6072 90.3852 60.1799L89.4702 58.4015C86.4543 59.9533 83.8886 62.0288 81.7819 64.6246L83.3349 65.885ZM90.3804 60.1824C93.1683 58.7669 96.316 58.0102 99.8423 57.93L99.7969 55.9305C96.0051 56.0167 92.5582 56.8336 89.475 58.3991L90.3804 60.1824ZM99.8423 57.93C102.271 57.8747 104.512 58.1568 106.573 58.7664L107.14 56.8486C104.86 56.1739 102.41 55.8711 99.7969 55.9305L99.8423 57.93ZM106.573 58.7664C108.621 59.3724 110.367 60.3038 111.827 61.5517L113.126 60.0313C111.434 58.5848 109.433 57.5268 107.14 56.8486L106.573 58.7664ZM111.848 61.5693C113.334 62.7698 114.498 64.2995 115.338 66.178L117.164 65.3619C116.203 63.2136 114.851 61.4244 113.105 60.0136L111.848 61.5693ZM115.341 66.1847C116.17 68.0046 116.61 70.1686 116.629 72.7018L118.629 72.6871C118.608 69.933 118.129 67.4808 117.161 65.3552L115.341 66.1847ZM117.606 71.6947L108.031 71.9124L108.077 73.9119L117.651 73.6942L117.606 71.6947Z" fill="#F8F5E9" mask="url(#path-6-outside-2_2_11)"/>
</svg>
